<svg width="28" height="20" viewBox="0 0 28 20" fill="none" xmlns="http://www.w3.org/2000/svg">
<path d="M23.2639 8.81608C22.6812 4.22675 18.7505 0.666748 14.0052 0.666748C10.3305 0.666748 7.13854 2.81475 5.68121 6.20008C2.81721 7.05608 0.671875 9.76008 0.671875 12.6667C0.671875 16.3427 3.66254 19.3334 7.33854 19.3334H8.67188V16.6667H7.33854C5.13321 16.6667 3.33854 14.8721 3.33854 12.6667C3.33854 10.7947 4.93721 8.99075 6.90254 8.64542L7.67721 8.50941L7.93321 7.76542C8.87054 5.03075 11.1972 3.33341 14.0052 3.33341C17.6812 3.33341 20.6719 6.32408 20.6719 10.0001V11.3334H22.0052C23.4759 11.3334 24.6719 12.5294 24.6719 14.0001C24.6719 15.4707 23.4759 16.6667 22.0052 16.6667H19.3385V19.3334H22.0052C24.9465 19.3334 27.3385 16.9414 27.3385 14.0001C27.337 12.8048 26.9347 11.6445 26.196 10.7047C25.4574 9.76498 24.425 9.1 23.2639 8.81608Z" fill="#FAFAFA"/>
<path d="M15.3385 12.6667V7.33342H12.6719V12.6667H8.67188L14.0052 19.3334L19.3385 12.6667H15.3385Z" fill="#FAFAFA"/>
</svg>
