<svg width="465" height="165" viewBox="0 0 465 165" fill="none" xmlns="http://www.w3.org/2000/svg">
<path fill-rule="evenodd" clip-rule="evenodd" d="M390.5 0H16.5C7.66344 0 0.5 7.16345 0.5 16V149C0.5 157.837 7.66345 165 16.5 165H391.5C390.948 165 390.5 164.552 390.5 164C390.5 163.448 390.948 163 391.5 163H395.5C396.052 163 396.5 163.448 396.5 164C396.5 164.552 396.052 165 395.5 165H448.5C457.337 165 464.5 157.837 464.5 149V16C464.5 7.16344 457.337 0 448.5 0H396.5C396.5 0.552285 396.052 1 395.5 1H391.5C390.948 1 390.5 0.552285 390.5 0ZM390.5 4C390.5 3.44772 390.948 3 391.5 3H395.5C396.052 3 396.5 3.44772 396.5 4C396.5 4.55228 396.052 5 395.5 5H391.5C390.948 5 390.5 4.55228 390.5 4ZM391.5 7C390.948 7 390.5 7.44772 390.5 8C390.5 8.55229 390.948 9 391.5 9H395.5C396.052 9 396.5 8.55229 396.5 8C396.5 7.44772 396.052 7 395.5 7H391.5ZM390.5 12C390.5 11.4477 390.948 11 391.5 11H395.5C396.052 11 396.5 11.4477 396.5 12C396.5 12.5523 396.052 13 395.5 13H391.5C390.948 13 390.5 12.5523 390.5 12ZM391.5 15C390.948 15 390.5 15.4477 390.5 16C390.5 16.5523 390.948 17 391.5 17H395.5C396.052 17 396.5 16.5523 396.5 16C396.5 15.4477 396.052 15 395.5 15H391.5ZM390.5 20C390.5 19.4477 390.948 19 391.5 19H395.5C396.052 19 396.5 19.4477 396.5 20C396.5 20.5523 396.052 21 395.5 21H391.5C390.948 21 390.5 20.5523 390.5 20ZM391.5 23C390.948 23 390.5 23.4477 390.5 24C390.5 24.5523 390.948 25 391.5 25H395.5C396.052 25 396.5 24.5523 396.5 24C396.5 23.4477 396.052 23 395.5 23H391.5ZM390.5 28C390.5 27.4477 390.948 27 391.5 27H395.5C396.052 27 396.5 27.4477 396.5 28C396.5 28.5523 396.052 29 395.5 29H391.5C390.948 29 390.5 28.5523 390.5 28ZM391.5 31C390.948 31 390.5 31.4477 390.5 32C390.5 32.5523 390.948 33 391.5 33H395.5C396.052 33 396.5 32.5523 396.5 32C396.5 31.4477 396.052 31 395.5 31H391.5ZM390.5 36C390.5 35.4477 390.948 35 391.5 35H395.5C396.052 35 396.5 35.4477 396.5 36C396.5 36.5523 396.052 37 395.5 37H391.5C390.948 37 390.5 36.5523 390.5 36ZM391.5 39C390.948 39 390.5 39.4477 390.5 40C390.5 40.5523 390.948 41 391.5 41H395.5C396.052 41 396.5 40.5523 396.5 40C396.5 39.4477 396.052 39 395.5 39H391.5ZM390.5 44C390.5 43.4477 390.948 43 391.5 43H395.5C396.052 43 396.5 43.4477 396.5 44C396.5 44.5523 396.052 45 395.5 45H391.5C390.948 45 390.5 44.5523 390.5 44ZM391.5 47C390.948 47 390.5 47.4477 390.5 48C390.5 48.5523 390.948 49 391.5 49H395.5C396.052 49 396.5 48.5523 396.5 48C396.5 47.4477 396.052 47 395.5 47H391.5ZM390.5 52C390.5 51.4477 390.948 51 391.5 51H395.5C396.052 51 396.5 51.4477 396.5 52C396.5 52.5523 396.052 53 395.5 53H391.5C390.948 53 390.5 52.5523 390.5 52ZM391.5 55C390.948 55 390.5 55.4477 390.5 56C390.5 56.5523 390.948 57 391.5 57H395.5C396.052 57 396.5 56.5523 396.5 56C396.5 55.4477 396.052 55 395.5 55H391.5ZM390.5 60C390.5 59.4477 390.948 59 391.5 59H395.5C396.052 59 396.5 59.4477 396.5 60C396.5 60.5523 396.052 61 395.5 61H391.5C390.948 61 390.5 60.5523 390.5 60ZM391.5 63C390.948 63 390.5 63.4477 390.5 64C390.5 64.5523 390.948 65 391.5 65H395.5C396.052 65 396.5 64.5523 396.5 64C396.5 63.4477 396.052 63 395.5 63H391.5ZM390.5 68C390.5 67.4477 390.948 67 391.5 67H395.5C396.052 67 396.5 67.4477 396.5 68C396.5 68.5523 396.052 69 395.5 69H391.5C390.948 69 390.5 68.5523 390.5 68ZM391.5 71C390.948 71 390.5 71.4477 390.5 72C390.5 72.5523 390.948 73 391.5 73H395.5C396.052 73 396.5 72.5523 396.5 72C396.5 71.4477 396.052 71 395.5 71H391.5ZM390.5 76C390.5 75.4477 390.948 75 391.5 75H395.5C396.052 75 396.5 75.4477 396.5 76C396.5 76.5523 396.052 77 395.5 77H391.5C390.948 77 390.5 76.5523 390.5 76ZM391.5 79C390.948 79 390.5 79.4477 390.5 80C390.5 80.5523 390.948 81 391.5 81H395.5C396.052 81 396.5 80.5523 396.5 80C396.5 79.4477 396.052 79 395.5 79H391.5ZM390.5 84C390.5 83.4477 390.948 83 391.5 83H395.5C396.052 83 396.5 83.4477 396.5 84C396.5 84.5523 396.052 85 395.5 85H391.5C390.948 85 390.5 84.5523 390.5 84ZM391.5 87C390.948 87 390.5 87.4477 390.5 88C390.5 88.5523 390.948 89 391.5 89H395.5C396.052 89 396.5 88.5523 396.5 88C396.5 87.4477 396.052 87 395.5 87H391.5ZM390.5 92C390.5 91.4477 390.948 91 391.5 91H395.5C396.052 91 396.5 91.4477 396.5 92C396.5 92.5523 396.052 93 395.5 93H391.5C390.948 93 390.5 92.5523 390.5 92ZM391.5 95C390.948 95 390.5 95.4477 390.5 96C390.5 96.5523 390.948 97 391.5 97H395.5C396.052 97 396.5 96.5523 396.5 96C396.5 95.4477 396.052 95 395.5 95H391.5ZM390.5 100C390.5 99.4477 390.948 99 391.5 99H395.5C396.052 99 396.5 99.4477 396.5 100C396.5 100.552 396.052 101 395.5 101H391.5C390.948 101 390.5 100.552 390.5 100ZM391.5 103C390.948 103 390.5 103.448 390.5 104C390.5 104.552 390.948 105 391.5 105H395.5C396.052 105 396.5 104.552 396.5 104C396.5 103.448 396.052 103 395.5 103H391.5ZM390.5 108C390.5 107.448 390.948 107 391.5 107H395.5C396.052 107 396.5 107.448 396.5 108C396.5 108.552 396.052 109 395.5 109H391.5C390.948 109 390.5 108.552 390.5 108ZM391.5 111C390.948 111 390.5 111.448 390.5 112C390.5 112.552 390.948 113 391.5 113H395.5C396.052 113 396.5 112.552 396.5 112C396.5 111.448 396.052 111 395.5 111H391.5ZM390.5 116C390.5 115.448 390.948 115 391.5 115H395.5C396.052 115 396.5 115.448 396.5 116C396.5 116.552 396.052 117 395.5 117H391.5C390.948 117 390.5 116.552 390.5 116ZM391.5 119C390.948 119 390.5 119.448 390.5 120C390.5 120.552 390.948 121 391.5 121H395.5C396.052 121 396.5 120.552 396.5 120C396.5 119.448 396.052 119 395.5 119H391.5ZM390.5 124C390.5 123.448 390.948 123 391.5 123H395.5C396.052 123 396.5 123.448 396.5 124C396.5 124.552 396.052 125 395.5 125H391.5C390.948 125 390.5 124.552 390.5 124ZM391.5 127C390.948 127 390.5 127.448 390.5 128C390.5 128.552 390.948 129 391.5 129H395.5C396.052 129 396.5 128.552 396.5 128C396.5 127.448 396.052 127 395.5 127H391.5ZM390.5 132C390.5 131.448 390.948 131 391.5 131H395.5C396.052 131 396.5 131.448 396.5 132C396.5 132.552 396.052 133 395.5 133H391.5C390.948 133 390.5 132.552 390.5 132ZM391.5 135C390.948 135 390.5 135.448 390.5 136C390.5 136.552 390.948 137 391.5 137H395.5C396.052 137 396.5 136.552 396.5 136C396.5 135.448 396.052 135 395.5 135H391.5ZM390.5 140C390.5 139.448 390.948 139 391.5 139H395.5C396.052 139 396.5 139.448 396.5 140C396.5 140.552 396.052 141 395.5 141H391.5C390.948 141 390.5 140.552 390.5 140ZM391.5 143C390.948 143 390.5 143.448 390.5 144C390.5 144.552 390.948 145 391.5 145H395.5C396.052 145 396.5 144.552 396.5 144C396.5 143.448 396.052 143 395.5 143H391.5ZM390.5 148C390.5 147.448 390.948 147 391.5 147H395.5C396.052 147 396.5 147.448 396.5 148C396.5 148.552 396.052 149 395.5 149H391.5C390.948 149 390.5 148.552 390.5 148ZM391.5 151C390.948 151 390.5 151.448 390.5 152C390.5 152.552 390.948 153 391.5 153H395.5C396.052 153 396.5 152.552 396.5 152C396.5 151.448 396.052 151 395.5 151H391.5ZM390.5 156C390.5 155.448 390.948 155 391.5 155H395.5C396.052 155 396.5 155.448 396.5 156C396.5 156.552 396.052 157 395.5 157H391.5C390.948 157 390.5 156.552 390.5 156ZM391.5 159C390.948 159 390.5 159.448 390.5 160C390.5 160.552 390.948 161 391.5 161H395.5C396.052 161 396.5 160.552 396.5 160C396.5 159.448 396.052 159 395.5 159H391.5Z" fill="#D9D9D9"/>
<path d="M398.5 6C398.5 3.79086 400.291 2 402.5 2H448.5C456.232 2 462.5 8.26801 462.5 16V149C462.5 156.732 456.232 163 448.5 163H402.5C400.291 163 398.5 161.209 398.5 159V6Z" fill="#0E464F"/>
<g clip-path="url(#clip0_19_932)">
<path d="M2.5 16C2.5 8.26801 8.76801 2 16.5 2H384.5C386.709 2 388.5 3.79086 388.5 6V159C388.5 161.209 386.709 163 384.5 163H16.5C8.76801 163 2.5 156.732 2.5 149V16Z" fill="#0E464F"/>
<g filter="url(#filter0_d_19_932)">
<rect x="10.5" y="12" width="120.375" height="117" rx="5.625" fill="#D9D9D9"/>
<rect x="9.375" y="10.875" width="122.625" height="119.25" rx="6.75" stroke="#0E464F" stroke-width="2.25"/>
</g>
<g opacity="0.3">
<rect width="468" height="16" transform="translate(2 147)" fill="white"/>
</g>
</g>
<defs>
<filter id="filter0_d_19_932" x="3.75" y="9.75" width="133.875" height="135" filterUnits="userSpaceOnUse" color-interpolation-filters="sRGB">
<feFlood flood-opacity="0" result="BackgroundImageFix"/>
<feColorMatrix in="SourceAlpha" type="matrix" values="0 0 0 0 0 0 0 0 0 0 0 0 0 0 0 0 0 0 127 0" result="hardAlpha"/>
<feOffset dy="9"/>
<feGaussianBlur stdDeviation="2.25"/>
<feComposite in2="hardAlpha" operator="out"/>
<feColorMatrix type="matrix" values="0 0 0 0 0.125244 0 0 0 0 0.120007 0 0 0 0 0.120007 0 0 0 0.25 0"/>
<feBlend mode="normal" in2="BackgroundImageFix" result="effect1_dropShadow_19_932"/>
<feBlend mode="normal" in="SourceGraphic" in2="effect1_dropShadow_19_932" result="shape"/>
</filter>
<clipPath id="clip0_19_932">
<path d="M2.5 16C2.5 8.26801 8.76801 2 16.5 2H384.5C386.709 2 388.5 3.79086 388.5 6V159C388.5 161.209 386.709 163 384.5 163H16.5C8.76801 163 2.5 156.732 2.5 149V16Z" fill="white"/>
</clipPath>
</defs>
</svg>
